HIERARCHY
ROOT Pelvis
{
	OFFSET 0.000000 0.941512 0.000000
	CHANNELS 6 Xposition Yposition Zposition Zrotation Yrotation Xrotation 
	JOINT Pelvis_L_Hip
	{
		OFFSET 0.000000 0.000000 0.000000
		CHANNELS 3 Zrotation Yrotation Xrotation
		JOINT L_Hip
		{
			OFFSET 0.062321 -0.080322 -0.016990
			CHANNELS 3 Zrotation Yrotation Xrotation
			JOINT L_Knee
			{
				OFFSET 0.093051 -0.381305 -0.029784
				CHANNELS 3 Zrotation Yrotation Xrotation
				JOINT L_Ankle
				{
					OFFSET -0.010371 -0.431000 -0.033614
					CHANNELS 3 Zrotation Yrotation Xrotation
					End Site #name: L_Foot
					{
						OFFSET 0.069299 -0.038670 0.119418
					}
				}
			}
		}
	}
	JOINT Pelvis_R_Hip
	{
		OFFSET 0.000000 0.000000 0.000000
		CHANNELS 3 Zrotation Yrotation Xrotation
		JOINT R_Hip
		{
			OFFSET -0.055334 -0.094904 -0.002373
			CHANNELS 3 Zrotation Yrotation Xrotation
			JOINT R_Knee
			{
				OFFSET -0.064207 -0.384370 -0.019592
				CHANNELS 3 Zrotation Yrotation Xrotation
				JOINT R_Ankle
				{
					OFFSET 0.025418 -0.419734 -0.065953
					CHANNELS 3 Zrotation Yrotation Xrotation
					End Site #name: R_Foot
					{
						OFFSET -0.057233 -0.039888 0.132134
					}
				}
			}
		}
	}
	JOINT Pelvis_Spine1
	{
		OFFSET 0.000000 0.000000 0.000000
		CHANNELS 3 Zrotation Yrotation Xrotation
		JOINT Spine1
		{
			OFFSET -0.005562 0.124093 -0.043360
			CHANNELS 3 Zrotation Yrotation Xrotation
			JOINT Spine2
			{
				OFFSET 0.012244 0.139499 0.029894
				CHANNELS 3 Zrotation Yrotation Xrotation
				JOINT Spine3
				{
					OFFSET -0.002556 0.056561 0.009225
					CHANNELS 3 Zrotation Yrotation Xrotation
					JOINT Spine3_Neck
					{
						OFFSET 0.000000 0.000000 0.000000
						CHANNELS 3 Zrotation Yrotation Xrotation
						JOINT Neck
						{
							OFFSET -0.005205 0.217920 -0.024551
							CHANNELS 3 Zrotation Yrotation Xrotation
							End Site #name: Head
							{
								OFFSET 0.002365 0.091850 0.046637
							}
						}
					}
					JOINT Spine3_L_Collar
					{
						OFFSET 0.000000 0.000000 0.000000
						CHANNELS 3 Zrotation Yrotation Xrotation
						JOINT L_Collar
						{
							OFFSET 0.072225 0.116603 -0.009480
							CHANNELS 3 Zrotation Yrotation Xrotation
							JOINT L_Shoulder
							{
								OFFSET 0.115937 -0.058643 -0.021018
								CHANNELS 3 Zrotation Yrotation Xrotation
								JOINT L_Elbow
								{
									OFFSET 0.021994 -0.254722 -0.024492
									CHANNELS 3 Zrotation Yrotation Xrotation
									End Site #name: L_Wrist
									{
										OFFSET 0.048810 -0.240214 0.103329
									}
								}
							}
						}
					}
					JOINT Spine3_R_Collar
					{
						OFFSET 0.000000 0.000000 0.000000
						CHANNELS 3 Zrotation Yrotation Xrotation
						JOINT R_Collar
						{
							OFFSET -0.073372 0.120704 -0.024611
							CHANNELS 3 Zrotation Yrotation Xrotation
							JOINT R_Shoulder
							{
								OFFSET -0.108089 -0.054969 -0.020504
								CHANNELS 3 Zrotation Yrotation Xrotation
								JOINT R_Elbow
								{
									OFFSET -0.033684 -0.260739 0.009889
									CHANNELS 3 Zrotation Yrotation Xrotation
									End Site #name: R_Wrist
									{
										OFFSET -0.067980 -0.232763 0.118463
									}
								}
							}
						}
					}
				}
			}
		}
	}
}
MOTION
Frames: 8
Frame Time: 0.041667
-0.016844 0.951040 0.016755 -1.709607 -2.226714 1.647583 0.000000 0.000000 0.000000 -9.407420 1.717139 2.779855 13.627795 -0.894390 -1.249447 -7.189503 -17.706032 2.787011 0.000000 0.000000 0.000000 6.883960 -0.831096 1.943864 -4.300100 0.001898 -6.806712 5.134980 7.648581 5.646564 0.000000 0.000000 0.000000 7.438846 0.112464 -11.355572 -5.704165 5.306803 38.566308 3.743288 2.307100 -28.076904 0.000000 0.000000 0.000000 -11.698638 7.363743 18.565139 0.000000 0.000000 0.000000 37.187971 -2.000104 6.713498 -26.812856 13.800852 35.671399 -2.156348 1.834725 12.737009 0.000000 0.000000 0.000000 -38.166029 -2.283922 12.119628 26.881646 -12.793587 39.242010 1.298733 1.474927 -2.593537 
-0.016352 0.951691 0.013122 -1.779541 -2.299346 2.352100 0.000000 0.000000 0.000000 -9.436817 1.417746 1.840436 13.668432 -0.894726 -1.263561 -7.227880 -17.559837 2.908053 0.000000 0.000000 0.000000 6.989859 -0.641185 1.036753 -4.454198 -0.003774 -7.013680 5.354783 7.705242 6.027323 0.000000 0.000000 0.000000 7.536485 0.018719 -10.887167 -5.815002 5.393583 38.648276 3.798188 2.457177 -28.680982 0.000000 0.000000 0.000000 -12.707107 7.790677 16.790670 0.000000 0.000000 0.000000 35.121340 -2.843343 5.269323 -26.471480 12.247243 31.851918 -2.050296 1.851247 12.643366 0.000000 0.000000 0.000000 -36.578532 -1.321085 10.510949 26.187425 -11.232918 35.834065 0.947041 1.193554 -2.299290 
-0.015863 0.951721 0.010235 -1.715699 -2.287061 2.947554 0.000000 0.000000 0.000000 -9.509091 1.149398 0.985965 13.550061 -0.899059 -1.172739 -7.094677 -17.294719 2.826816 0.000000 0.000000 0.000000 6.786649 -0.478944 0.347755 -4.202067 -0.057271 -7.325763 5.585506 7.737371 6.449707 0.000000 0.000000 0.000000 7.527195 -0.012692 -10.732100 -6.154290 5.591668 38.697101 3.857678 2.742015 -29.486906 0.000000 0.000000 0.000000 -13.477896 8.160471 16.136030 0.000000 0.000000 0.000000 31.734501 -4.456179 2.890659 -24.502087 9.924461 27.205261 -2.622577 1.535401 11.924102 0.000000 0.000000 0.000000 -34.162606 0.364705 7.939174 25.523326 -9.054560 30.585495 0.340228 0.360717 -0.625141 
-0.015652 0.951000 0.008219 -1.729970 -2.535364 3.195990 0.000000 0.000000 0.000000 -9.521297 1.053248 0.683281 13.522641 -0.883823 -1.276660 -7.014996 -17.013636 2.841388 0.000000 0.000000 0.000000 6.888832 -0.401898 -0.034580 -4.501604 -0.033218 -7.354217 5.945326 8.241319 6.795074 0.000000 0.000000 0.000000 7.353357 0.073552 -11.185694 -6.174166 5.743050 39.439471 3.767321 3.025706 -30.089051 0.000000 0.000000 0.000000 -13.800062 8.303950 15.918265 0.000000 0.000000 0.000000 27.711322 -7.164402 -0.357277 -22.204299 7.212707 20.709436 -2.554510 1.613402 12.136606 0.000000 0.000000 0.000000 -30.626447 2.773656 4.569639 23.538561 -6.331333 24.030568 0.083627 -0.216176 0.872925 
-0.013042 0.950160 0.005346 -1.326812 -2.273541 3.210201 0.000000 0.000000 0.000000 -10.215426 0.940933 0.157886 13.790398 -0.952172 -0.927065 -6.961194 -17.007334 2.758642 0.000000 0.000000 0.000000 6.303690 -0.337115 -0.167397 -4.337987 -0.061283 -7.496256 5.804416 7.875294 6.779883 0.000000 0.000000 0.000000 6.706014 0.268197 -11.975634 -5.878559 5.725889 40.719730 3.579947 2.845021 -31.118287 0.000000 0.000000 0.000000 -13.631580 8.302790 16.927861 0.000000 0.000000 0.000000 23.656039 -11.043779 -4.194476 -18.435342 4.325548 13.252575 -1.632103 2.188662 13.493729 0.000000 0.000000 0.000000 -26.922395 6.262494 0.611567 20.494381 -3.562539 16.700896 -0.827955 -1.104277 2.406843 
-0.012379 0.950476 0.003206 -1.109443 -2.110714 3.102252 0.000000 0.000000 0.000000 -10.485644 0.856730 -0.151660 13.858530 -1.009240 -0.568877 -6.917370 -17.105685 2.647981 0.000000 0.000000 0.000000 6.182587 -0.309776 -0.249746 -4.409868 -0.038111 -7.327545 5.692098 7.770096 6.644046 0.000000 0.000000 0.000000 5.952404 0.560768 -13.442039 -5.511652 5.764774 42.692915 3.706394 2.895559 -32.331343 0.000000 0.000000 0.000000 -13.384107 8.438386 19.370229 0.000000 0.000000 0.000000 21.604190 -15.085325 -7.571764 -15.590460 1.802374 4.493575 -0.416528 2.674876 14.128927 0.000000 0.000000 0.000000 -24.692653 9.639870 -2.612743 17.276120 -0.954551 8.429107 -0.964103 -1.236958 2.640760 
-0.011142 0.950262 0.001163 -1.090593 -1.883115 2.897569 0.000000 0.000000 0.000000 -10.421729 0.755569 -0.417014 13.628524 -1.061272 -0.086745 -6.884804 -17.176331 2.563130 0.000000 0.000000 0.000000 6.316126 -0.288582 -0.363007 -4.658802 0.022924 -6.950366 5.659873 7.772167 6.598259 0.000000 0.000000 0.000000 5.133484 0.791401 -14.541186 -4.830215 5.375611 43.129579 3.951598 2.915710 -32.486700 0.000000 0.000000 0.000000 -13.314252 8.701388 21.596971 0.000000 0.000000 0.000000 22.310513 -18.217985 -10.054561 -14.470077 -0.201399 -4.073237 0.160779 2.210260 10.759993 0.000000 0.000000 0.000000 -24.388201 12.747927 -5.211840 15.148261 1.389902 -0.249005 -1.995883 -1.284769 1.019813 
-0.010423 0.950777 0.000268 -1.136241 -1.663754 2.604621 0.000000 0.000000 0.000000 -10.341148 0.756215 -0.377568 13.591192 -1.107637 0.259259 -6.770610 -17.531889 2.238044 0.000000 0.000000 0.000000 6.443094 -0.317487 -0.245810 -4.697271 0.057940 -6.642027 5.490374 7.692994 6.338658 0.000000 0.000000 0.000000 4.611744 0.916810 -15.129939 -4.468218 5.051850 42.585150 4.246680 2.977289 -32.255649 0.000000 0.000000 0.000000 -12.873628 8.660135 23.521094 0.000000 0.000000 0.000000 23.907460 -21.068521 -12.424803 -14.009227 -1.738251 -10.976040 1.736653 1.602323 4.585559 0.000000 0.000000 0.000000 -24.916694 15.371993 -7.356921 13.259809 3.081515 -7.335113 -3.210701 -0.691032 -3.442544 
